<svg width="60" height="56" viewBox="0 0 60 56" fill="none" xmlns="http://www.w3.org/2000/svg">
<path d="M34.618 44.7629C31.3128 44.7629 28.0764 44.7629 24.7712 44.7629C24.7024 44.2267 24.6335 43.7575 24.5647 43.2883C24.1515 41.2774 23.1186 39.6016 21.466 38.261C17.3345 34.8425 15.8197 30.4185 17.128 25.3242C18.4363 20.23 22.0169 17.0795 27.319 16.0071C32.8965 14.8675 38.8183 17.8169 41.2972 22.7771C43.9139 28.0054 42.7433 34.1722 38.1986 37.9259C36.1329 39.6687 34.8246 41.7466 34.618 44.4278C34.6868 44.5618 34.6868 44.6289 34.618 44.7629Z" fill="#DF2919"/>
<path d="M34.6707 46.7629C34.6707 48.1507 34.6707 49.3752 34.6707 50.7629C31.3373 50.7629 28.0734 50.7629 24.6707 50.7629C24.6707 49.4568 24.6707 48.1507 24.6707 46.7629C28.004 46.7629 31.2679 46.7629 34.6707 46.7629Z" fill="#DF2919"/>
<path d="M26.6707 52.7629C28.7374 52.7629 30.6663 52.7629 32.6641 52.7629C32.733 53.852 32.2508 54.6007 31.493 55.1452C30.4596 55.894 29.3574 55.962 28.2551 55.3494C27.2218 54.8049 26.7395 53.9881 26.6707 52.7629Z" fill="#DF2919"/>
<path d="M2 29.8796H11.134" stroke="#1C1C1C" stroke-width="3" stroke-miterlimit="10" stroke-linecap="round" stroke-linejoin="round"/>
<path d="M48.4697 29.8796H57.6704" stroke="#1C1C1C" stroke-width="3" stroke-miterlimit="10" stroke-linecap="round" stroke-linejoin="round"/>
<path d="M29.6687 11.2523V2" stroke="#1C1C1C" stroke-width="3" stroke-miterlimit="10" stroke-linecap="round" stroke-linejoin="round"/>
<path d="M44.0696 18.0793L50.5367 11.5759" stroke="#1C1C1C" stroke-width="3" stroke-miterlimit="10" stroke-linecap="round" stroke-linejoin="round"/>
<path d="M14.5343 18.6159L8.06714 12.0454" stroke="#1C1C1C" stroke-width="3" stroke-miterlimit="10" stroke-linecap="round" stroke-linejoin="round"/>
</svg>
