<svg width="42" height="38" viewBox="0 0 42 38" fill="none" xmlns="http://www.w3.org/2000/svg">
<path d="M30 28L39 35" stroke="black" stroke-width="6" stroke-linecap="round"/>
<circle cx="17.5" cy="16.5" r="15" stroke="black" stroke-width="3"/>
<circle cx="16.5" cy="18.5" r="15" stroke="black" stroke-width="3"/>
<path d="M14.1637 25.1344L14.3118 25.2976L14.4599 25.1344L25.1481 13.3599L25.2702 13.2254L25.148 13.091L23.1265 10.8655L22.9786 10.7026L22.8305 10.8655L14.3117 20.236L11.1694 16.7842L11.0213 16.6216L10.8735 16.7844L8.85196 19.0098L8.72989 19.1442L8.85187 19.2787L14.1637 25.1344Z" fill="#DF2919" stroke="#DF2919" stroke-width="0.4"/>
<path d="M35.5003 28.5C35 26.5 33 25.5 31.5 25.5C30.8333 26.1667 28.4001 27.6 28.0001 30C27.6001 32.4 31.0002 34 32.0004 33C32.0004 32 32.7003 32.1 35.5003 28.5Z" fill="black"/>
</svg>
