<svg width="150" height="60" viewBox="0 0 133 57" fill="none" xmlns="http://www.w3.org/2000/svg">
<path d="M114.095 17.9568H126.36C126.905 17.9568 127.341 17.7605 127.669 17.368C127.996 16.9755 128.159 16.4958 128.159 15.9289C128.159 15.3619 127.996 14.8713 127.669 14.457C127.363 14.0209 126.927 13.8028 126.36 13.8028H120.309C118.957 13.8028 117.812 13.6066 116.875 13.2141C115.959 12.7998 115.218 12.2765 114.651 11.6441C114.084 10.9899 113.669 10.2595 113.408 9.45266C113.146 8.62405 113.015 7.79545 113.015 6.96684C113.015 6.07282 113.146 5.2224 113.408 4.4156C113.691 3.6088 114.127 2.90012 114.716 2.28957C115.305 1.65721 116.057 1.15569 116.973 0.784996C117.889 0.414304 119.001 0.228958 120.309 0.228958H131.528V5.00435H119.72C119.175 5.00435 118.717 5.2006 118.347 5.5931C117.998 5.98559 117.823 6.46531 117.823 7.03225C117.823 7.5992 117.998 8.07892 118.347 8.47141C118.717 8.84211 119.186 9.02745 119.753 9.02745H125.739C127.985 9.02745 129.751 9.6053 131.037 10.761C132.346 11.8949 133 13.6175 133 15.9289C133 18.1966 132.357 19.9084 131.07 21.0641C129.784 22.1979 127.985 22.7649 125.673 22.7649H114.095V17.9568Z" fill="white"/>
<path d="M100.951 5.36414C100.864 5.01525 100.7 4.84081 100.461 4.84081C100.286 4.84081 100.155 5.01525 100.068 5.36414L96.7645 14.8822H104.222L100.951 5.36414ZM105.89 19.6903H95.0637L94.0497 22.7649H88.9473L95.8487 3.13998C96.2412 2.02791 96.8299 1.23201 97.6149 0.752288C98.4217 0.250762 99.3921 0 100.526 0C101.616 0 102.565 0.250762 103.372 0.752288C104.2 1.23201 104.811 2.02791 105.203 3.13998L112.105 22.7649H107.035L105.89 19.6903Z" fill="white"/>
<path d="M87.7135 17.2372C87.7135 18.1094 87.55 18.9053 87.2229 19.6249C86.9176 20.3226 86.4924 20.9332 85.9473 21.4565C85.4021 21.9581 84.7589 22.3506 84.0175 22.634C83.2761 22.8957 82.4802 23.0265 81.6298 23.0265C80.3869 23.0265 79.2639 22.6449 78.2609 21.8817C77.2796 21.1185 76.56 20.0501 76.1021 18.6763L71.9809 5.75661C71.8719 5.18967 71.5666 4.9062 71.0651 4.9062C70.4109 4.9062 70.0838 5.36411 70.0838 6.27994V22.7649H65.0468V5.85473C65.0468 4.98252 65.1994 4.19752 65.5047 3.49975C65.8099 2.78017 66.2352 2.16961 66.7803 1.66809C67.3254 1.16656 67.9687 0.78497 68.7101 0.523305C69.4515 0.239834 70.2583 0.0980988 71.1305 0.0980988C72.3734 0.0980988 73.4855 0.479694 74.4667 1.24288C75.4698 2.00607 76.1893 3.07454 76.6254 4.44829L80.7794 17.3353C80.8666 17.924 81.2046 18.2184 81.7933 18.2184C82.3821 18.2184 82.6765 17.7496 82.6765 16.812V0.228931H87.7135V17.2372Z" fill="white"/>
<path d="M61.9275 5.00435H50.1198C49.5747 5.00435 49.1168 5.2006 48.7461 5.5931C48.3972 5.98559 48.2228 6.46531 48.2228 7.03225C48.2228 7.5992 48.3863 8.07892 48.7134 8.47141C49.0623 8.84211 49.542 9.02745 50.1525 9.02745H61.9275V13.8028H50.1198C49.5747 13.8028 49.1168 14.01 48.7461 14.4243C48.3972 14.8168 48.2228 15.3183 48.2228 15.9289C48.2228 16.4958 48.3972 16.9755 48.7461 17.368C49.1168 17.7605 49.5856 17.9568 50.1525 17.9568H61.9275V22.7649H50.7086C49.3785 22.7649 48.2446 22.5686 47.3069 22.1761C46.3911 21.7836 45.6388 21.2712 45.0501 20.6389C44.4613 19.9847 44.0361 19.2433 43.7745 18.4147C43.5128 17.5861 43.382 16.7466 43.382 15.8962C43.382 15.4819 43.4147 15.0458 43.4801 14.5878C43.5673 14.1081 43.709 13.6611 43.9053 13.2468C44.1015 12.8325 44.3523 12.4618 44.6576 12.1347C44.9629 11.8076 45.3444 11.5678 45.8024 11.4152C44.8865 10.979 44.2542 10.3358 43.9053 9.48537C43.5782 8.61315 43.4147 7.5992 43.4147 6.44351C43.4147 4.45921 44.0361 2.93283 45.279 1.86437C46.5437 0.774094 48.3536 0.228958 50.7086 0.228958H61.9275V5.00435Z" fill="white"/>
<path d="M40.6447 14.0972C40.6447 15.4055 40.4484 16.5939 40.0559 17.6624C39.6634 18.7091 39.0638 19.614 38.257 20.3772C37.472 21.1404 36.4798 21.7291 35.2805 22.1434C34.103 22.5577 32.7184 22.7649 31.1266 22.7649C29.5784 22.7649 28.2046 22.5577 27.0053 22.1434C25.8279 21.7073 24.8248 21.1186 23.9962 20.3772C23.1894 19.614 22.5679 18.7091 22.1318 17.6624C21.7175 16.5939 21.5104 15.4164 21.5104 14.1299V0.228958H26.3185V14.0645C26.3185 15.2202 26.7437 16.1578 27.5941 16.8774C28.4663 17.597 29.6547 17.9568 31.1593 17.9568H31.2574C32.7838 17.9568 33.9286 17.6079 34.6918 16.9101C35.455 16.1905 35.8366 15.242 35.8366 14.0645V0.228958H40.6447V14.0972Z" fill="white"/>
<path d="M13.3867 17.4007C13.7574 17.0082 13.9428 16.4849 13.9428 15.8308C13.9428 15.2856 13.7574 14.8168 13.3867 14.4243C13.016 14.01 12.569 13.8028 12.0457 13.8028H0.205322V9.02745H12.013C12.6017 9.02745 13.0705 8.83121 13.4194 8.43871C13.7683 8.04621 13.9428 7.56649 13.9428 6.99955C13.9428 6.45441 13.7574 5.98559 13.3867 5.5931C13.016 5.2006 12.569 5.00435 12.0457 5.00435H0.205322V0.228958H11.4569C13.8555 0.228958 15.6654 0.752289 16.8865 1.79895C18.1294 2.84561 18.7509 4.60095 18.7509 7.06496C18.7509 7.43566 18.6963 7.84996 18.5873 8.30787C18.4783 8.76579 18.3038 9.2128 18.064 9.64891C17.8459 10.0632 17.5516 10.4339 17.1809 10.761C16.832 11.0881 16.4177 11.3061 15.9379 11.4152C16.4177 11.5678 16.832 11.8076 17.1809 12.1347C17.5516 12.4618 17.8459 12.8434 18.064 13.2795C18.3038 13.6938 18.4783 14.1299 18.5873 14.5878C18.6963 15.0458 18.7509 15.4819 18.7509 15.8962C18.7509 16.7466 18.62 17.5861 18.3584 18.4147C18.0967 19.2433 17.6715 19.9847 17.0827 20.6389C16.5158 21.2712 15.7635 21.7836 14.8259 22.1761C13.91 22.5686 12.7871 22.7649 11.4569 22.7649H0.205322V17.9568H12.013C12.6017 17.9568 13.0596 17.7605 13.3867 17.368V17.4007Z" fill="white"/>
<path d="M72.6036 36.6677H79.6032C80.1919 36.6677 80.6607 36.4715 81.0096 36.079C81.3585 35.6865 81.533 35.2068 81.533 34.6398C81.533 34.0947 81.3476 33.6259 80.9769 33.2334C80.6062 32.8409 80.1592 32.6446 79.6359 32.6446H72.6036V36.6677ZM72.6036 45.5971H79.6032C80.2137 45.5971 80.6826 45.3899 81.0096 44.9756C81.3585 44.5613 81.533 44.0598 81.533 43.471C81.533 42.9259 81.3476 42.4571 80.9769 42.0646C80.6062 41.6503 80.1592 41.4431 79.6359 41.4431H72.6036V45.5971ZM79.0471 27.8692C80.0938 27.8692 81.0641 28.0328 81.9582 28.3599C82.8522 28.6651 83.6263 29.1122 84.2804 29.7009C84.9346 30.2897 85.4361 31.0092 85.785 31.8596C86.1557 32.6882 86.3411 33.6368 86.3411 34.7053C86.3411 35.0759 86.3084 35.4793 86.2429 35.9155C86.1775 36.3298 86.0467 36.7441 85.8504 37.1584C85.676 37.5509 85.4252 37.9216 85.0982 38.2704C84.7711 38.5975 84.3568 38.8592 83.8552 39.0554C84.335 39.2517 84.7384 39.5243 85.0654 39.8731C85.3925 40.2002 85.6433 40.5709 85.8177 40.9852C86.014 41.3995 86.1448 41.8247 86.2102 42.2608C86.2974 42.6969 86.3411 43.1222 86.3411 43.5365C86.3411 44.3869 86.2102 45.2264 85.9486 46.055C85.6869 46.8836 85.2617 47.625 84.6729 48.2791C84.106 48.9115 83.3537 49.4239 82.4161 49.8164C81.5003 50.2089 80.3773 50.4052 79.0471 50.4052H67.7955V27.8692H79.0471Z" fill="white"/>
<path d="M64.6763 32.6447H52.8686C52.3235 32.6447 51.8656 32.8409 51.4949 33.2334C51.146 33.6259 50.9715 34.1056 50.9715 34.6726C50.9715 35.2395 51.1351 35.7192 51.4622 36.1117C51.8111 36.4824 52.2908 36.6678 52.9013 36.6678H64.6763V41.4432H52.8686C52.3235 41.4432 51.8656 41.6503 51.4949 42.0646C51.146 42.4571 50.9715 42.9586 50.9715 43.5692C50.9715 44.1361 51.146 44.6158 51.4949 45.0083C51.8656 45.4008 52.3344 45.5971 52.9013 45.5971H64.6763V50.4052H53.4574C52.1272 50.4052 50.9934 50.2089 50.0557 49.8164C49.1399 49.4239 48.3876 48.9115 47.7989 48.2792C47.2101 47.625 46.7849 46.8836 46.5232 46.055C46.2616 45.2264 46.1307 44.3869 46.1307 43.5365C46.1307 43.1222 46.1634 42.6861 46.2289 42.2281C46.3161 41.7484 46.4578 41.3014 46.6541 40.8871C46.8503 40.4728 47.1011 40.1021 47.4064 39.775C47.7116 39.448 48.0932 39.2081 48.5511 39.0555C47.6353 38.6193 47.003 37.9761 46.6541 37.1257C46.327 36.2535 46.1634 35.2395 46.1634 34.0838C46.1634 32.0995 46.7849 30.5731 48.0278 29.5047C49.2925 28.4144 51.1024 27.8693 53.4574 27.8693H64.6763V32.6447Z" fill="white"/>
<path d="M45.8451 27.2966L37.4562 50.9112C36.841 52.6449 35.9183 54.0151 34.6879 55.0217C33.4575 56.0004 32.0454 56.4898 30.4515 56.4898H30.3676C29.2771 56.4898 28.2564 56.322 27.3057 55.9864C26.355 55.6229 25.5301 55.1196 24.831 54.4765C24.1599 53.8053 23.6146 53.0224 23.1952 52.1276C22.8037 51.2048 22.608 50.1842 22.608 49.0656V35.0563C22.608 33.8818 22.1326 33.2946 21.1818 33.2946C20.8743 33.2946 20.6506 33.3925 20.5107 33.5882C20.3989 33.784 20.287 34.0496 20.1752 34.3852L14.8483 50.9112C14.289 52.6728 13.3662 54.043 12.0799 55.0217C10.7937 56.0004 9.36755 56.4898 7.80163 56.4898C6.68312 56.4898 5.64849 56.322 4.69776 55.9864C3.74702 55.6229 2.92212 55.1196 2.22305 54.4765C1.52397 53.8053 0.978699 53.0224 0.58722 52.1276C0.19574 51.2048 0 50.1842 0 49.0656V27.2966H6.45942V48.5204C6.45942 49.7228 6.93478 50.324 7.88552 50.324C8.41681 50.324 8.75237 49.9465 8.89218 49.1915L14.1772 32.7074C14.5127 31.6728 14.9322 30.8059 15.4355 30.1068C15.9668 29.3798 16.54 28.7926 17.1552 28.3452C17.7983 27.8978 18.4695 27.5902 19.1685 27.4224C19.8676 27.2267 20.5667 27.1288 21.2657 27.1288C22.3563 27.1288 23.3769 27.3106 24.3277 27.6741C25.2784 28.0096 26.1033 28.499 26.8024 29.1421C27.5015 29.7853 28.0467 30.5682 28.4382 31.491C28.8576 32.3858 29.0674 33.3925 29.0674 34.511V48.5204C29.0674 49.7228 29.5288 50.324 30.4515 50.324C30.9828 50.324 31.3184 49.9465 31.4582 49.1915L39.0082 27.2966H45.8451Z" fill="white"/>
<path d="M131.713 30.7993H111.263V35.3519H131.713V30.7993Z" fill="#E03122"/>
<path d="M101.941 30.6548H93.848V35.4964H101.941V30.6548Z" fill="#595AF8"/>
</svg>
