<svg width="90" height="90" viewBox="0 0 182 78" fill="none" xmlns="http://www.w3.org/2000/svg">
<path d="M156.13 24.5726H172.914C173.66 24.5726 174.257 24.3041 174.705 23.767C175.152 23.2299 175.376 22.5734 175.376 21.7976C175.376 21.0218 175.152 20.3504 174.705 19.7835C174.287 19.1867 173.69 18.8883 172.914 18.8883H164.634C162.784 18.8883 161.217 18.6197 159.934 18.0826C158.681 17.5157 157.667 16.7995 156.891 15.9342C156.115 15.039 155.548 14.0394 155.19 12.9354C154.832 11.8015 154.653 10.6676 154.653 9.53374C154.653 8.31034 154.832 7.14661 155.19 6.04257C155.578 4.93853 156.175 3.96876 156.98 3.13326C157.786 2.26793 158.815 1.58164 160.069 1.07437C161.322 0.567108 162.844 0.313477 164.634 0.313477H179.986V6.84823H163.828C163.082 6.84823 162.456 7.11678 161.948 7.65388C161.471 8.19098 161.232 8.84744 161.232 9.62326C161.232 10.3991 161.471 11.0555 161.948 11.5926C162.456 12.0999 163.097 12.3535 163.873 12.3535H172.064C175.137 12.3535 177.554 13.1443 179.315 14.7257C181.105 16.2774 182 18.6346 182 21.7976C182 24.9008 181.12 27.2432 179.36 28.8247C177.599 30.3763 175.137 31.1521 171.974 31.1521H156.13V24.5726Z" fill="white"/>
<path d="M138.144 7.34041C138.024 6.86298 137.801 6.62427 137.472 6.62427C137.234 6.62427 137.055 6.86298 136.935 7.34041L132.415 20.3651H142.62L138.144 7.34041ZM144.902 26.9447H130.087L128.7 31.152H121.717L131.161 4.29682C131.699 2.77503 132.504 1.68591 133.578 1.02945C134.682 0.343149 136.01 0 137.562 0C139.054 0 140.352 0.343149 141.456 1.02945C142.59 1.68591 143.425 2.77503 143.962 4.29682L153.406 31.152H146.469L144.902 26.9447Z" fill="white"/>
<path d="M120.029 23.5878C120.029 24.7813 119.805 25.8704 119.358 26.8551C118.94 27.81 118.358 28.6455 117.612 29.3616C116.866 30.0479 115.986 30.585 114.971 30.9729C113.957 31.331 112.868 31.51 111.704 31.51C110.003 31.51 108.467 30.9878 107.094 29.9435C105.751 28.8991 104.766 27.437 104.14 25.5571L98.5003 7.87751C98.3511 7.10169 97.9334 6.71379 97.2471 6.71379C96.3519 6.71379 95.9043 7.34041 95.9043 8.59365V31.152H89.0115V8.01178C89.0115 6.81822 89.2204 5.74402 89.6381 4.78917C90.0558 3.80448 90.6377 2.96898 91.3837 2.28269C92.1297 1.59639 93.0099 1.07421 94.0244 0.716139C95.039 0.328232 96.143 0.134277 97.3366 0.134277C99.0374 0.134277 100.559 0.65646 101.902 1.70083C103.275 2.74519 104.259 4.20731 104.856 6.08717L110.54 23.722C110.66 24.5277 111.122 24.9305 111.928 24.9305C112.734 24.9305 113.136 24.289 113.136 23.0059V0.313312H120.029V23.5878Z" fill="white"/>
<path d="M84.7433 6.84823H68.5855C67.8395 6.84823 67.2129 7.11678 66.7056 7.65388C66.2282 8.19098 65.9895 8.84744 65.9895 9.62326C65.9895 10.3991 66.2133 11.0555 66.6609 11.5926C67.1383 12.0999 67.7948 12.3535 68.6303 12.3535H84.7433V18.8883H68.5855C67.8395 18.8883 67.2129 19.1717 66.7056 19.7387C66.2282 20.2758 65.9895 20.9621 65.9895 21.7976C65.9895 22.5734 66.2282 23.2299 66.7056 23.767C67.2129 24.3041 67.8544 24.5726 68.6303 24.5726H84.7433V31.1521H69.3912C67.571 31.1521 66.0193 30.8836 64.7363 30.3465C63.483 29.8094 62.4536 29.1082 61.6479 28.2428C60.8423 27.3476 60.2604 26.3331 59.9023 25.1992C59.5443 24.0654 59.3652 22.9166 59.3652 21.7528C59.3652 21.1859 59.41 20.5891 59.4995 19.9625C59.6189 19.306 59.8128 18.6943 60.0814 18.1274C60.3499 17.5604 60.6931 17.0532 61.1108 16.6056C61.5286 16.158 62.0508 15.8298 62.6774 15.6209C61.4241 15.0241 60.5588 14.1439 60.0814 12.9801C59.6338 11.7866 59.41 10.3991 59.41 8.8176C59.41 6.10225 60.2604 4.01352 61.9612 2.5514C63.6919 1.05945 66.1685 0.313477 69.3912 0.313477H84.7433V6.84823Z" fill="white"/>
<path d="M55.6189 19.2911C55.6189 21.0814 55.3504 22.7077 54.8133 24.1698C54.2762 25.6021 53.4556 26.8404 52.3516 27.8848C51.2774 28.9291 49.9197 29.7348 48.2785 30.3017C46.6672 30.8687 44.7724 31.1521 42.5942 31.1521C40.4756 31.1521 38.5958 30.8687 36.9546 30.3017C35.3433 29.7049 33.9707 28.8993 32.8368 27.8848C31.7328 26.8404 30.8824 25.6021 30.2856 24.1698C29.7187 22.7077 29.4352 21.0964 29.4352 19.3359V0.313477H36.0147V19.2463C36.0147 20.8278 36.5966 22.1109 37.7603 23.0956C38.9538 24.0803 40.5801 24.5726 42.639 24.5726H42.7732C44.862 24.5726 46.4285 24.0952 47.4729 23.1403C48.5172 22.1557 49.0394 20.8577 49.0394 19.2463V0.313477H55.6189V19.2911Z" fill="white"/>
<path d="M18.3188 23.8117C18.8261 23.2746 19.0797 22.5585 19.0797 21.6633C19.0797 20.9173 18.8261 20.2758 18.3188 19.7387C17.8116 19.1717 17.1999 18.8883 16.4837 18.8883H0.281128V12.3535H16.439C17.2446 12.3535 17.8862 12.085 18.3636 11.5479C18.841 11.0108 19.0797 10.3543 19.0797 9.5785C19.0797 8.83252 18.8261 8.19098 18.3188 7.65388C17.8116 7.11678 17.1999 6.84823 16.4837 6.84823H0.281128V0.313477H15.6781C18.9604 0.313477 21.437 1.02961 23.108 2.46189C24.8088 3.89416 25.6592 6.2962 25.6592 9.66802C25.6592 10.1753 25.5846 10.7422 25.4354 11.3688C25.2862 11.9955 25.0475 12.6072 24.7193 13.2039C24.4209 13.7709 24.0181 14.2781 23.5108 14.7257C23.0334 15.1733 22.4665 15.4717 21.81 15.6209C22.4665 15.8298 23.0334 16.158 23.5108 16.6056C24.0181 17.0532 24.4209 17.5754 24.7193 18.1721C25.0475 18.7391 25.2862 19.3359 25.4354 19.9625C25.5846 20.5891 25.6592 21.1859 25.6592 21.7528C25.6592 22.9166 25.4802 24.0654 25.1221 25.1992C24.7641 26.3331 24.1822 27.3476 23.3765 28.2428C22.6007 29.1082 21.5713 29.8094 20.2882 30.3465C19.035 30.8836 17.4983 31.1521 15.6781 31.1521H0.281128V24.5726H16.439C17.2446 24.5726 17.8712 24.3041 18.3188 23.767V23.8117Z" fill="white"/>
<path d="M99.3526 50.1768H108.931C109.737 50.1768 110.378 49.9082 110.856 49.3711C111.333 48.834 111.572 48.1776 111.572 47.4017C111.572 46.6558 111.318 46.0142 110.811 45.4771C110.304 44.94 109.692 44.6715 108.976 44.6715H99.3526V50.1768ZM99.3526 62.3959H108.931C109.766 62.3959 110.408 62.1124 110.856 61.5454C111.333 60.9785 111.572 60.2922 111.572 59.4866C111.572 58.7406 111.318 58.099 110.811 57.5619C110.304 56.995 109.692 56.7115 108.976 56.7115H99.3526V62.3959ZM108.17 38.1367C109.602 38.1367 110.93 38.3605 112.154 38.8081C113.377 39.2258 114.436 39.8375 115.331 40.6432C116.227 41.4489 116.913 42.4335 117.39 43.5973C117.898 44.7311 118.151 46.0291 118.151 47.4913C118.151 47.9985 118.106 48.5505 118.017 49.1473C117.927 49.7143 117.748 50.2812 117.48 50.8482C117.241 51.3853 116.898 51.8925 116.45 52.3699C116.003 52.8175 115.436 53.1756 114.75 53.4441C115.406 53.7127 115.958 54.0857 116.406 54.5631C116.853 55.0107 117.196 55.518 117.435 56.0849C117.704 56.6518 117.883 57.2337 117.972 57.8305C118.091 58.4273 118.151 59.0091 118.151 59.5761C118.151 60.7398 117.972 61.8886 117.614 63.0225C117.256 64.1564 116.674 65.1709 115.868 66.0661C115.093 66.9314 114.063 67.6326 112.78 68.1697C111.527 68.7068 109.99 68.9754 108.17 68.9754H92.7731V38.1367H108.17Z" fill="white"/>
<path d="M88.5046 44.6715H72.3467C71.6008 44.6715 70.9741 44.94 70.4669 45.4771C69.9894 46.0142 69.7507 46.6707 69.7507 47.4465C69.7507 48.2223 69.9745 48.8788 70.4221 49.4159C70.8995 49.9231 71.556 50.1768 72.3915 50.1768H88.5046V56.7115H72.3467C71.6008 56.7115 70.9741 56.995 70.4669 57.5619C69.9894 58.099 69.7507 58.7853 69.7507 59.6208C69.7507 60.3966 69.9894 61.0531 70.4669 61.5902C70.9741 62.1273 71.6157 62.3959 72.3915 62.3959H88.5046V68.9754H73.1524C71.3322 68.9754 69.7806 68.7068 68.4975 68.1697C67.2443 67.6326 66.2148 66.9314 65.4092 66.0661C64.6035 65.1709 64.0216 64.1564 63.6636 63.0225C63.3055 61.8886 63.1265 60.7398 63.1265 59.5761C63.1265 59.0091 63.1712 58.4123 63.2607 57.7857C63.3801 57.1293 63.5741 56.5176 63.8426 55.9506C64.1112 55.3837 64.4543 54.8764 64.872 54.4288C65.2898 53.9812 65.812 53.653 66.4386 53.4441C65.1854 52.8474 64.32 51.9671 63.8426 50.8034C63.395 49.6098 63.1712 48.2223 63.1712 46.6408C63.1712 43.9255 64.0216 41.8368 65.7225 40.3746C67.4531 38.8827 69.9298 38.1367 73.1524 38.1367H88.5046V44.6715Z" fill="white"/>
<path d="M62.7354 37.3534L51.2559 69.6681C50.4141 72.0406 49.1513 73.9155 47.4677 75.2931C45.784 76.6323 43.8516 77.302 41.6705 77.302H41.5557C40.0634 77.302 38.6667 77.0724 37.3657 76.6132C36.0647 76.1158 34.9359 75.427 33.9793 74.5469C33.0609 73.6285 32.3148 72.5571 31.7408 71.3326C31.2051 70.0699 30.9372 68.6732 30.9372 67.1426V47.9719C30.9372 46.3648 30.2867 45.5612 28.9857 45.5612C28.5648 45.5612 28.2587 45.6951 28.0673 45.963C27.9143 46.2308 27.7612 46.5944 27.6082 47.0535L20.3187 69.6681C19.5534 72.0788 18.2906 73.9538 16.5305 75.2931C14.7703 76.6323 12.8188 77.302 10.6759 77.302C9.14532 77.302 7.72952 77.0724 6.42851 76.6132C5.1275 76.1158 3.99869 75.427 3.04206 74.5469C2.08544 73.6285 1.33927 72.5571 0.803564 71.3326C0.267855 70.0699 0 68.6732 0 67.1426V37.3534H8.8392V66.3965C8.8392 68.0419 9.48971 68.8646 10.7907 68.8646C11.5178 68.8646 11.9769 68.348 12.1683 67.3148L19.4003 44.7576C19.8595 43.3418 20.4335 42.1556 21.1223 41.199C21.8493 40.2041 22.6337 39.4005 23.4755 38.7883C24.3556 38.1761 25.274 37.7552 26.2306 37.5256C27.1873 37.2577 28.1439 37.1238 29.1005 37.1238C30.5928 37.1238 31.9895 37.3725 33.2905 37.8699C34.5915 38.3291 35.7203 38.9988 36.677 39.8789C37.6336 40.7589 38.3797 41.8304 38.9155 43.0931C39.4894 44.3176 39.7764 45.6951 39.7764 47.2257V66.3965C39.7764 68.0419 40.4078 68.8646 41.6705 68.8646C42.3976 68.8646 42.8568 68.348 43.0481 67.3148L53.3796 37.3534H62.7354Z" fill="white"/>
<path d="M180.239 42.1465H152.255V48.3762H180.239V42.1465Z" fill="#E03122"/>
<path d="M139.499 41.9487H128.423V48.574H139.499V41.9487Z" fill="#595AF8"/>
</svg>
