<svg width="437" height="289" viewBox="0 0 437 289" fill="none" xmlns="http://www.w3.org/2000/svg">
<circle cx="22.3243" cy="144.101" r="2.32432" fill="#575757"/>
<circle cx="37.3243" cy="144.101" r="2.32432" fill="#575757"/>
<circle cx="7.32432" cy="144.101" r="2.32432" fill="#575757"/>
<circle cx="52.3243" cy="144.101" r="2.32432" fill="#575757"/>
<circle cx="22.3243" cy="168.101" r="2.32432" fill="#575757"/>
<circle cx="37.3243" cy="168.101" r="2.32432" fill="#575757"/>
<circle cx="7.32432" cy="168.101" r="2.32432" fill="#575757"/>
<circle cx="52.3243" cy="168.101" r="2.32432" fill="#575757"/>
<circle cx="22.3243" cy="156.101" r="2.32432" fill="#575757"/>
<circle cx="37.3243" cy="156.101" r="2.32432" fill="#575757"/>
<circle cx="7.32432" cy="156.101" r="2.32432" fill="#575757"/>
<circle cx="52.3243" cy="156.101" r="2.32432" fill="#575757"/>
<circle cx="22.3243" cy="180.101" r="2.32432" fill="#575757"/>
<circle cx="22.3243" cy="192.101" r="2.32432" fill="#575757"/>
<circle cx="37.3243" cy="180.101" r="2.32432" fill="#575757"/>
<circle cx="37.3243" cy="192.101" r="2.32432" fill="#575757"/>
<circle cx="7.32432" cy="180.101" r="2.32432" fill="#575757"/>
<circle cx="7.32432" cy="192.101" r="2.32432" fill="#575757"/>
<circle cx="52.3243" cy="180.101" r="2.32432" fill="#575757"/>
<circle cx="52.3243" cy="192.101" r="2.32432" fill="#575757"/>
<path fill-rule="evenodd" clip-rule="evenodd" d="M176.255 99.8259C106.517 70.8837 37.8702 71.0498 0 77.5333V2.75297C51.2489 -3.73022 127.575 -0.496329 204.62 31.4781C295.406 69.1555 385.44 146.097 436.261 288.777H356.947C312.446 182.585 243.085 127.561 176.255 99.8259Z" fill="#131313"/>
</svg>
