<svg width="71" height="74" viewBox="0 0 71 74" fill="none" xmlns="http://www.w3.org/2000/svg">
<g clip-path="url(#clip0_49_148)">
<path d="M39.1742 32.6287C36.6902 32.6287 34.258 32.6287 31.774 32.6287C31.7223 32.2124 31.6705 31.8481 31.6188 31.4838C31.3083 29.9226 30.532 28.6216 29.2901 27.5809C26.1851 24.9269 25.0466 21.4923 26.0298 17.5373C27.0131 13.5823 29.704 11.1364 33.6887 10.3038C37.8804 9.41911 42.3309 11.7088 44.1938 15.5598C46.1603 19.6188 45.2806 24.4065 41.8651 27.3207C40.3126 28.6737 39.3294 30.2869 39.1742 32.3685C39.2259 32.4726 39.2259 32.5246 39.1742 32.6287Z" fill="#DF2919"/>
<path d="M39.7434 63.2279C41.2959 63.9044 42.6414 64.8932 43.7281 66.1421C45.3324 68.0155 46.1604 70.2532 46.3156 72.6991C46.3673 73.4276 45.9534 73.948 45.3324 74C44.6596 74.0521 44.2456 73.6358 44.1939 72.8552C44.0904 70.6695 43.3141 68.7441 41.7617 67.1829C39.1742 64.5809 36.0692 63.8003 32.602 65.0493C29.1348 66.2462 27.2201 68.8482 26.8061 72.4909C26.8061 72.647 26.8061 72.7511 26.7544 72.9072C26.7026 73.6358 26.2369 74 25.6159 74C24.9949 73.948 24.5809 73.4797 24.6327 72.7511C24.7362 71.0338 25.1501 69.4206 25.9781 67.9635C27.1166 65.9339 28.7208 64.4248 30.7391 63.4361C30.8943 63.384 31.0496 63.2799 31.2048 63.1759C31.0496 63.0718 30.9461 62.9157 30.8426 62.8636C29.2383 61.5106 28.3586 59.7933 28.2034 57.7117C28.2034 57.5036 28.2034 57.2954 28.2034 57.0872C28.3069 56.5148 28.7208 56.1505 29.2901 56.2026C29.8593 56.2026 30.2216 56.6189 30.3251 57.1913C30.4286 57.7638 30.4286 58.3362 30.5838 58.8566C31.3601 61.3024 33.7923 62.7595 36.328 62.2912C38.7085 61.8749 40.5714 59.6372 40.5197 57.1913C40.4679 54.6414 38.5532 52.5078 36.0692 52.1435C34.4133 51.9353 33.016 52.4557 31.8258 53.6006C31.7741 53.6526 31.6706 53.7567 31.6188 53.8088C31.1531 54.2771 30.4803 54.3292 30.0663 53.9128C29.6006 53.4965 29.6006 52.82 30.0663 52.3517C31.2048 51.1027 32.602 50.3221 34.258 50.0099C38.7602 49.2813 42.7966 52.768 42.7449 57.3474C42.6931 59.4811 41.8134 61.3024 40.2092 62.7075C40.0539 62.8116 39.9504 62.9157 39.7952 63.0718C39.7952 63.1238 39.7952 63.1238 39.7434 63.2279Z" fill="white"/>
<path d="M15.1108 63.1759C15.7835 63.5922 16.4563 63.9565 17.0772 64.3728C17.75 64.7891 17.9052 65.4657 17.543 66.0381C17.1807 66.6105 16.5598 66.6626 15.8353 66.1942C12.6786 64.0086 8.79737 64.0086 5.79591 66.1422C3.46719 67.8074 2.27696 70.0972 2.06996 72.9073C2.01821 73.3756 1.86297 73.792 1.44897 73.896C1.13848 74.0001 0.724481 73.9481 0.413986 73.792C-8.52719e-06 73.5838 -0.0517578 73.1675 -0.0517578 72.6991C0.258738 68.4839 2.27696 65.4136 6.00291 63.4361C6.15815 63.332 6.36515 63.28 6.57215 63.1239C4.34693 61.3545 3.31194 59.1169 3.62244 56.3067C3.82944 54.4333 4.65743 52.8721 6.05466 51.6752C9.10786 49.0733 13.4031 49.3335 16.1458 52.2477C18.6297 54.8496 19.1472 60.0015 15.1108 63.1759ZM15.9388 57.1914C15.9388 54.3813 13.6618 52.0915 10.8673 52.0395C8.07288 52.0395 5.74416 54.3292 5.74416 57.1394C5.74416 59.9495 8.02113 62.2913 10.8156 62.2913C13.6618 62.3433 15.9388 60.0536 15.9388 57.1914Z" fill="white"/>
<path d="M64.4279 63.1238C65.2558 63.6442 66.0838 64.1126 66.8083 64.685C69.3958 66.7145 70.7413 69.4726 70.9483 72.7511C71 73.2194 70.793 73.6358 70.379 73.8439C69.965 74.0521 69.551 74.0521 69.2405 73.6878C69.0335 73.4796 68.8783 73.1154 68.8265 72.8031C68.5161 68.4318 65.5146 65.1533 61.1677 64.5289C59.4082 64.2687 57.7005 64.5809 56.0962 65.4135C55.6822 65.6217 55.2165 65.6217 54.8542 65.3095C54.492 65.0493 54.3885 64.6329 54.5437 64.2687C54.6472 64.0085 54.8542 63.7483 55.0612 63.5922C55.2682 63.384 55.5787 63.332 55.941 63.1758C53.6123 61.3545 52.5773 59.0127 52.9913 56.0464C53.25 54.121 54.1815 52.5598 55.734 51.4149C58.7872 49.0732 63.0306 49.4895 65.5663 52.3517C67.8951 55.0057 68.3608 60.0014 64.4279 63.1238ZM55.0095 57.1913C55.0095 60.0535 57.2865 62.3432 60.1327 62.3432C62.9271 62.3432 65.2041 60.0014 65.2041 57.1913C65.2041 54.3812 62.8754 52.0394 60.1327 52.0394C57.3382 52.0915 55.0612 54.3812 55.0095 57.1913Z" fill="white"/>
<path d="M25.9782 32.2644C27.0649 32.2644 28.0999 32.2644 29.1866 32.2644C29.9111 32.2644 30.3769 32.6807 30.3769 33.3052C30.3769 33.9817 29.9629 34.398 29.1866 34.398C27.4271 34.398 25.6159 34.398 23.8564 34.398C17.3878 34.398 12.1094 39.654 11.9541 46.1589C11.9541 46.263 11.9541 46.3671 11.9541 46.4712C11.9024 47.1477 11.4366 47.564 10.8156 47.5119C10.2464 47.5119 9.78064 47.0436 9.78064 46.4191C9.83239 45.4304 9.88414 44.3896 10.0911 43.4529C11.5919 36.8439 17.2325 32.2644 24.0117 32.2644C24.6844 32.2644 25.3054 32.2644 25.9782 32.2644Z" fill="white"/>
<path d="M39.2259 34.2939C39.2259 35.1786 39.2259 35.9592 39.2259 36.8439C36.742 36.8439 34.3098 36.8439 31.774 36.8439C31.774 36.0112 31.774 35.1786 31.774 34.2939C34.258 34.2939 36.6902 34.2939 39.2259 34.2939Z" fill="#DF2919"/>
<path d="M45.0737 32.2124C46.4191 32.2644 47.8164 32.3165 49.1619 32.4206C49.7828 32.4726 50.1968 32.993 50.0933 33.6175C50.0416 34.1899 49.5241 34.5542 48.9031 34.5542C46.5226 34.5021 44.1939 34.4501 41.8135 34.3981C41.089 34.3981 40.6232 34.0338 40.5715 33.4093C40.5197 32.7328 40.9337 32.2644 41.6582 32.2644C42.7967 32.2644 43.8834 32.2644 45.0219 32.2644C45.0737 32.2124 45.0737 32.2124 45.0737 32.2124Z" fill="white"/>
<path d="M61.2194 45.7946C61.2194 46.0028 61.2194 46.2109 61.2194 46.4191C61.2194 47.0956 60.7537 47.5119 60.1844 47.564C59.5634 47.564 59.1494 47.1476 59.0977 46.4711C58.9942 45.5865 58.9424 44.7018 58.7872 43.8692C58.5284 42.5682 58.0109 41.4233 57.39 40.2784C57.0277 39.706 57.0795 39.1856 57.4934 38.8213C58.0109 38.353 58.7872 38.4571 59.1494 39.1336C60.1327 40.7468 60.7537 42.4641 61.0124 44.2855C61.1159 44.7538 61.1159 45.2742 61.2194 45.7946Z" fill="white"/>
<path d="M50.3004 73.9999C49.7312 73.9999 49.2654 73.5836 49.3172 73.0112C49.3172 70.7735 50.0417 68.7439 51.3354 66.9226C51.6976 66.4542 52.3186 66.3501 52.7844 66.6624C53.2501 66.9746 53.4571 67.5991 53.0949 68.1195C52.1116 69.5766 51.5424 71.1898 51.4906 73.0112C51.3871 73.6356 50.8696 73.9999 50.3004 73.9999Z" fill="white"/>
<path d="M21.7347 72.6469C21.683 72.9592 21.6312 73.2714 21.5277 73.5316C21.269 74 20.855 74.104 20.3892 74C19.9235 73.8959 19.613 73.5316 19.613 73.0632C19.5613 71.7102 19.199 70.4613 18.6298 69.2644C18.3193 68.6919 18.5263 68.0675 19.0438 67.8073C19.613 67.495 20.1823 67.7032 20.5445 68.3277C21.2172 69.5766 21.5795 71.0858 21.7347 72.6469Z" fill="white"/>
<path d="M30.118 71.1377C30.118 70.5653 30.118 70.0449 30.118 69.4725C30.118 68.796 30.5838 68.3796 31.2048 68.3796C31.8258 68.3796 32.2398 68.796 32.2398 69.4725C32.2398 70.6173 32.2398 71.7622 32.2398 72.9071C32.2398 73.5836 31.774 73.9999 31.153 73.9999C30.5838 73.9999 30.118 73.5836 30.118 72.9071C30.118 72.3346 30.118 71.7102 30.118 71.1377Z" fill="white"/>
<path d="M40.8302 71.1898C40.8302 71.7622 40.8302 72.2826 40.8302 72.855C40.8302 73.5315 40.4162 73.9479 39.7952 73.9999C39.1742 73.9999 38.7085 73.5836 38.7085 72.855C38.7085 71.7102 38.7085 70.6173 38.7085 69.4725C38.7085 68.796 39.1742 68.3796 39.7952 68.3796C40.4162 68.3796 40.8302 68.796 40.8302 69.4725C40.8302 69.5245 40.8302 69.5245 40.8302 69.5765C40.8302 70.149 40.8302 70.6694 40.8302 71.1898Z" fill="white"/>
<path d="M14.0758 71.1898C14.0758 70.6173 14.0758 70.0449 14.0758 69.4725C14.0758 68.848 14.4898 68.4317 15.1108 68.3796C15.7318 68.3796 16.1975 68.796 16.1975 69.4204C16.1975 70.5653 16.1975 71.7622 16.1975 72.9071C16.1975 73.5315 15.68 73.9999 15.1108 73.9479C14.5415 73.9479 14.1276 73.4795 14.0758 72.855C14.0758 72.803 14.0758 72.803 14.0758 72.751C14.0758 72.2826 14.0758 71.7102 14.0758 71.1898Z" fill="white"/>
<path d="M56.8725 71.19C56.8725 71.7624 56.8725 72.3348 56.8725 72.9073C56.8725 73.5317 56.4585 73.948 55.8375 74.0001C55.2165 74.0001 54.7507 73.5838 54.7507 72.9593C54.7507 71.8144 54.7507 70.6175 54.7507 69.4727C54.7507 68.7961 55.2165 68.3798 55.8375 68.4319C56.4067 68.4319 56.8207 68.8482 56.8725 69.5247C56.8725 70.0451 56.8725 70.6175 56.8725 71.19Z" fill="white"/>
<path d="M7.60719 71.1898C7.60719 71.7622 7.60719 72.3347 7.60719 72.9071C7.60719 73.5316 7.14145 73.9479 6.57221 73.9479C5.95122 73.9479 5.48547 73.5316 5.48547 72.8551C5.48547 71.7102 5.48547 70.5653 5.48547 69.4205C5.48547 68.7439 5.95122 68.3276 6.57221 68.3276C7.1932 68.3276 7.60719 68.7439 7.60719 69.4205C7.60719 70.0449 7.60719 70.6174 7.60719 71.1898Z" fill="white"/>
<path d="M63.3411 71.1898C63.3411 70.6173 63.3411 70.0449 63.3411 69.4725C63.3411 68.796 63.8068 68.3796 64.4278 68.3796C64.997 68.3796 65.4628 68.796 65.4628 69.4204C65.4628 70.5653 65.4628 71.7622 65.4628 72.9071C65.4628 73.5315 64.997 73.9479 64.4278 73.9479C63.8068 73.9479 63.3928 73.5315 63.3411 72.855C63.3411 72.3346 63.3411 71.7622 63.3411 71.1898Z" fill="white"/>
<path d="M36.5349 44.9101C36.5349 45.4305 36.5349 45.8988 36.5349 46.4192C36.5349 47.0957 36.1209 47.512 35.4999 47.512C34.879 47.512 34.465 47.0957 34.4132 46.4192C34.4132 45.3784 34.4132 44.3897 34.4132 43.3489C34.4132 42.7244 34.879 42.3081 35.4482 42.3081C36.0174 42.3081 36.4832 42.7765 36.5349 43.4009C36.5349 43.6611 36.5349 43.9213 36.5349 44.1295C36.5349 44.4417 36.5349 44.7019 36.5349 44.9101Z" fill="white"/>
<path d="M57.183 37.0521C56.976 37.3123 56.8208 37.7286 56.5103 37.8327C56.1998 37.9367 55.6823 37.9367 55.4236 37.7806C54.6473 37.3123 53.9746 36.6878 53.2501 36.1154C52.8361 35.8031 52.7326 35.1786 53.0431 34.7103C53.3018 34.294 53.9228 34.0338 54.3368 34.346C55.2166 34.9184 55.9928 35.595 56.8208 36.2715C57.0278 36.3755 57.0278 36.6878 57.183 37.0521Z" fill="white"/>
<path d="M33.223 38.457C34.7755 38.457 36.2245 38.457 37.7252 38.457C37.777 39.2897 37.4147 39.8621 36.8455 40.2784C36.0692 40.8508 35.2412 40.9029 34.4133 40.4345C33.637 40.0182 33.2748 39.3937 33.223 38.457Z" fill="#DF2919"/>
<path d="M15.5765 20.8677H22.6662" stroke="white" stroke-width="2" stroke-miterlimit="10" stroke-linecap="round" stroke-linejoin="round"/>
<path d="M47.7646 20.8677H54.906" stroke="white" stroke-width="2" stroke-miterlimit="10" stroke-linecap="round" stroke-linejoin="round"/>
<path d="M35.5 7.96195V0.780518" stroke="white" stroke-width="2" stroke-miterlimit="10" stroke-linecap="round" stroke-linejoin="round"/>
<path d="M44.3491 11.7087L49.3688 6.66089" stroke="white" stroke-width="2" stroke-miterlimit="10" stroke-linecap="round" stroke-linejoin="round"/>
<path d="M26.0817 12.125L21.062 7.02515" stroke="white" stroke-width="2" stroke-miterlimit="10" stroke-linecap="round" stroke-linejoin="round"/>
</g>
<defs>
<clipPath id="clip0_49_148">
<rect width="71" height="74" fill="white"/>
</clipPath>
</defs>
</svg>
